<?xml version="1.0" encoding="utf-8"?>
<!-- Generator: Adobe Illustrator 16.0.0, SVG Export Plug-In . SVG Version: 6.00 Build 0)  -->
<!DOCTYPE svg PUBLIC "-//W3C//DTD SVG 1.1//EN" "http://www.w3.org/Graphics/SVG/1.1/DTD/svg11.dtd">
<svg version="1.1" id="Layer_1" xmlns="http://www.w3.org/2000/svg" xmlns:xlink="http://www.w3.org/1999/xlink" x="0px" y="0px"
	 width="80px" height="16px" viewBox="0 0 80 16" enable-background="new 0 0 80 16" xml:space="preserve">
<g transform="translate(32, 0)">
	<path fill="#FFFFFF" d="M3,16h10c0.6,0,1-0.4,1-1V7.5l0.3,0.3C14.5,7.9,14.8,8,15,8c0.3,0,0.6-0.1,0.8-0.3c0.4-0.4,0.3-1-0.1-1.4
		l-7-6C8.3,0,7.8,0,7.4,0.3L4,3.1V2c0-0.6-0.4-1-1-1S2,1.4,2,2v2.8L0.3,6.2c-0.4,0.4-0.5,1-0.1,1.4c0.4,0.4,1,0.5,1.4,0.1L2,7.5V15
		C2,15.6,2.4,16,3,16z M4,5.7l4-3.4l4,3.5c0,0.1,0,0.1,0,0.2v8h-2v-3c0-0.6-0.4-1-1-1H7c-0.6,0-1,0.4-1,1v3H4V5.7z"/>
	<rect x="6" y="6" fill="#FFFFFF" width="4" height="2"/>
</g>
<g transform="translate(48, 0)">
	<circle fill="#FFFFFF" cx="6" cy="8" r="2"/>
	<path fill="#FFFFFF" d="M10,2H6C2.7,2,0,4.7,0,8s2.7,6,6,6h4c3.3,0,6-2.7,6-6S13.3,2,10,2z M10,12H6c-2.2,0-4-1.8-4-4s1.8-4,4-4h4
		c2.2,0,4,1.8,4,4S12.2,12,10,12z"/>
</g>
<g transform="translate(64, 0)">
	<path fill="#FFFFFF" d="M6,0H1C0.4,0,0,0.4,0,1v5c0,0.6,0.4,1,1,1h5c0.6,0,1-0.4,1-1V1C7,0.4,6.6,0,6,0z M5,5H2V2h3V5z"/>
	<path fill="#FFFFFF" d="M15,0h-5C9.4,0,9,0.4,9,1v5c0,0.6,0.4,1,1,1h5c0.6,0,1-0.4,1-1V1C16,0.4,15.6,0,15,0z M14,5h-3V2h3V5z"/>
	<path fill="#FFFFFF" d="M6,9H1c-0.6,0-1,0.4-1,1v5c0,0.6,0.4,1,1,1h5c0.6,0,1-0.4,1-1v-5C7,9.4,6.6,9,6,9z M5,14H2v-3h3V14z"/>
	<path fill="#FFFFFF" d="M15,9h-5c-0.6,0-1,0.4-1,1v5c0,0.6,0.4,1,1,1h5c0.6,0,1-0.4,1-1v-5C16,9.4,15.6,9,15,9z M14,14h-3v-3h3V14z
		"/>
</g>
<path fill="#FFFFFF" d="M11.129,1.034c-0.492-0.491-1.228-0.491-1.72,0L0.808,9.635c-0.245,0.246-0.368,0.49-0.368,0.859v3.687
	c0,0.735,0.491,1.229,1.229,1.229h3.685c0.369,0,0.615-0.123,0.86-0.368l8.601-8.601c0.492-0.492,0.492-1.229,0-1.721L11.129,1.034z
	 M4.863,12.951H2.896v-1.966l7.372-7.371l1.967,1.965L4.863,12.951z"/>
<path fill="#FFFFFF" d="M15.867,15.158v-2.526H28.5v2.526H15.867z M17.13,6.316h3.79V0h2.526v6.316h3.79l-5.053,5.053L17.13,6.316z"
	/>
</svg>
